<svg xmlns="http://www.w3.org/2000/svg" viewBox="0 0 32 32" width="32" height="32">
  <rect width="32" height="32" rx="7" fill="#0F766E"/>
  <path d="M16 26 C8.5 26 5 19.5 6 14.5 C7 9.5 11 7 16 7 C21 7 25 9.5 26 14.5 C27 19.5 23.5 26 16 26Z"
        fill="#2DD4BF"/>
  <path d="M16 26 C10 26 7 21 7.8 16 C8.5 11.5 12 9 16 9 C18.5 9 20.5 10 22 12"
        fill="#99F6E4" opacity="0.5"/>
  <line x1="16" y1="26" x2="16" y2="30" stroke="white" stroke-width="2" stroke-linecap="round"/>
  <line x1="16" y1="11" x2="16" y2="25" stroke="#0F766E" stroke-width="1.4" stroke-linecap="round" opacity="0.5"/>
  <line x1="16" y1="16" x2="21" y2="12" stroke="#0F766E" stroke-width="1" stroke-linecap="round" opacity="0.45"/>
  <line x1="16" y1="20" x2="21" y2="17" stroke="#0F766E" stroke-width="1" stroke-linecap="round" opacity="0.35"/>
  <line x1="16" y1="19" x2="11" y2="16" stroke="#0F766E" stroke-width="1" stroke-linecap="round" opacity="0.35"/>
</svg>
